<?xml version="1.0" encoding="UTF-8"?>
<svg id="Layer_2" data-name="Layer 2" xmlns="http://www.w3.org/2000/svg" viewBox="0 0 117.84 220.6">
  <defs>
    <style>
      .cls-1 {
        fill: #f5efee;
      }

      .cls-2 {
        fill: #fff;
      }

      .cls-3 {
        fill: #ffe88e;
      }

      .cls-4 {
        fill: #c389ce;
      }

      .cls-5 {
        fill: #231f20;
      }
    </style>
  </defs>
  <g id="Layer_1-2" data-name="Layer 1">
    <g id="_551_calculator_flatline" data-name=" 551 calculator flatline">
      <path class="cls-4" d="m8.74,71.6c1.2-1.8,2.6-3.4,4.1-4.9.2-.2.4-.3.6-.4.7-.1,1.1.7,1.2,1.4.6,4.4,0,8.8-1.6,12.9-1.5,3.7-2.6,7.7-6.3,9.9-.5.4-1.1.5-1.8.5-.7-.2-1.2-.8-1.4-1.6-.5-2.5-3.6-.1-3-2.5.9-3.6,3.3-6.7,4.9-9.9,1-1.8,2.1-3.7,3.3-5.4Z"/>
      <polygon class="cls-3" points="26.34 .5 20.54 40.8 2.74 130.7 8.84 135.1 98.44 135.5 112.04 40.8 117.34 3.9 112.84 .5 26.34 .5"/>
      <path class="cls-5" d="m98.44,136h0l-89.6-.4c-.1,0-.2,0-.3-.1l-6.1-4.4c-.2-.1-.2-.3-.2-.5L20.14,40.8,25.94.5c0-.2.3-.4.5-.4h86.4c.1,0,.2,0,.3.1l4.5,3.5c.1.1.2.3.2.5l-18.8,131.5c-.1.1-.3.3-.6.3Zm-89.5-1.5l89,.4L116.74,4.1l-4.1-3.2H26.84l-5.7,39.9L3.34,130.3l5.6,4.2Z"/>
      <polygon class="cls-3" points="107.04 40.8 15.54 40.8 21.34 .5 112.84 .5 107.04 40.8"/>
      <path class="cls-5" d="m107.04,41.4H15.64c-.1,0-.3-.1-.4-.2-.1-.1-.1-.3-.1-.4L20.94.4c0-.2.2-.4.5-.4h91.4c.1,0,.3.1.4.2.1.1.1.3.1.4l-5.8,40.4c-.1.2-.3.3-.5.4Zm-90.9-1.1h90.4L112.14,1H21.74l-5.6,39.3Z"/>
      <polygon class="cls-2" points="107.04 40.8 15.54 40.8 2.74 130.7 94.14 130.7 107.04 40.8"/>
      <path class="cls-5" d="m94.14,131.2H2.64c-.1,0-.3-.1-.4-.2s-.1-.3-.1-.4L15.04,40.8c0-.2.2-.4.5-.4h91.4c.1,0,.3.1.4.2.1.1.1.3.1.4l-12.8,89.7c-.1.3-.2.4-.5.5Zm-90.8-1h90.4l12.7-88.8H15.94L3.34,130.2Z"/>
      <polygon class="cls-2" points="99.74 31.7 25.44 31.7 28.44 10.6 102.74 10.6 99.74 31.7"/>
      <path class="cls-5" d="m99.74,32.1H25.44c-.1,0-.3-.1-.4-.2-.1-.1-.1-.3-.1-.4l3-21.1c0-.3.2-.4.5-.4h74.3c.1,0,.3.1.4.2.1.1.1.3.1.4l-3,21.1c0,.3-.2.4-.5.4Zm-73.7-1h73.3l2.9-20.1H28.94l-2.9,20.1Z"/>
      <path class="cls-1" d="m33.64,64.2h-10.5c-1.3,0-2.3-1-2.4-2.2v-.5l.9-6c.3-1.5,1.5-2.7,3.1-2.7h10.5c1.3,0,2.3,1,2.3,2.3v.4l-.9,6c-.2,1.5-1.5,2.6-3,2.7Z"/>
      <path class="cls-1" d="m53.34,64.2h-10.5c-1.3,0-2.3-1-2.4-2.2v-.5l.9-6c.2-1.5,1.5-2.6,3-2.7h10.5c1.3-.1,2.3.9,2.4,2.2v.5l-.9,6c-.2,1.5-1.5,2.6-3,2.7Z"/>
      <path class="cls-1" d="m73.04,64.2h-10.5c-1.3,0-2.3-1-2.4-2.2v-.5l.9-6c.3-1.5,1.6-2.7,3.1-2.7h10.5c1.3,0,2.3,1,2.4,2.2v.5l-.9,6c-.3,1.5-1.6,2.6-3.1,2.7Z"/>
      <path class="cls-1" d="m92.74,64.2h-10.5c-1.3,0-2.3-1-2.4-2.2v-.5l.9-6c.2-1.5,1.5-2.6,3-2.7h10.5c1.3-.1,2.3.9,2.4,2.2v.5l-.9,6c-.1,1.5-1.4,2.6-3,2.7Z"/>
      <path class="cls-1" d="m31.64,77.8h-10.5c-1.3,0-2.3-1-2.4-2.2v-.5l.9-6c.2-1.5,1.5-2.6,3-2.7h10.5c1.3,0,2.3,1,2.4,2.2v.5l-.9,6c-.2,1.5-1.5,2.7-3,2.7Z"/>
      <path class="cls-1" d="m51.34,77.8h-10.5c-1.3,0-2.3-1-2.4-2.2v-.5l.9-6c.2-1.5,1.5-2.6,3-2.7h10.5c1.3,0,2.3,1,2.4,2.2v.5l-.9,6c-.2,1.5-1.4,2.7-3,2.7Z"/>
      <path class="cls-1" d="m71.14,77.8h-10.5c-1.3,0-2.3-1-2.4-2.2v-.5l.9-6c.2-1.5,1.5-2.6,3-2.7h10.5c1.3,0,2.3,1,2.4,2.2v.5l-.9,6c-.2,1.5-1.5,2.7-3,2.7Z"/>
      <path class="cls-1" d="m90.84,77.8h-10.5c-1.3,0-2.3-1-2.4-2.2v-.5l.9-6c.2-1.5,1.5-2.6,3-2.7h10.5c1.3,0,2.3,1,2.4,2.2v.5l-.9,6c-.2,1.5-1.5,2.7-3,2.7Z"/>
      <path class="cls-1" d="m29.74,91.5h-10.5c-1.3,0-2.3-1-2.4-2.2v-.5l.9-6c.2-1.5,1.5-2.6,3-2.7h10.5c1.3,0,2.3,1,2.4,2.2v.5l-.9,6c-.2,1.5-1.5,2.6-3,2.7Z"/>
      <path class="cls-1" d="m49.44,91.5h-10.5c-1.3,0-2.3-1-2.4-2.2v-.5l.9-6c.2-1.5,1.5-2.7,3.1-2.7h10.5c1.3,0,2.3,1,2.4,2.2v.5l-.9,6c-.3,1.5-1.6,2.6-3.1,2.7Z"/>
      <path class="cls-1" d="m69.14,91.5h-10.5c-1.3,0-2.3-1-2.4-2.2v-.5l.9-6c.2-1.5,1.5-2.7,3.1-2.7h10.5c1.3,0,2.3,1,2.4,2.2v.5l-.9,6c-.2,1.5-1.5,2.6-3.1,2.7Z"/>
      <path class="cls-1" d="m88.84,91.5h-10.5c-1.3,0-2.3-1-2.4-2.2v-.5l.9-6c.3-1.5,1.5-2.7,3.1-2.7h10.5c1.3,0,2.3,1,2.4,2.2v.5l-.9,6c-.2,1.5-1.5,2.6-3.1,2.7Z"/>
      <path class="cls-1" d="m27.74,105.1h-10.5c-1.3,0-2.3-1-2.4-2.2v-.5l.9-6c.3-1.5,1.5-2.7,3.1-2.7h10.5c1.3,0,2.3,1,2.4,2.2v.5l-.9,6c-.3,1.5-1.6,2.7-3.1,2.7Z"/>
      <path class="cls-1" d="m47.44,105.1h-10.5c-1.3,0-2.3-1-2.4-2.2v-.5l.9-6c.2-1.5,1.5-2.6,3-2.7h10.5c1.3,0,2.3,1,2.4,2.2v.5l-.9,6c-.2,1.5-1.4,2.6-3,2.7Z"/>
      <path class="cls-1" d="m67.14,105.1h-10.5c-1.3,0-2.3-1-2.4-2.2v-.5l.9-6c.3-1.5,1.5-2.7,3.1-2.7h10.5c1.3,0,2.3,1,2.4,2.2v.5l-.9,6c-.2,1.5-1.5,2.7-3.1,2.7Z"/>
      <path class="cls-1" d="m86.94,105.1h-10.5c-1.3,0-2.3-1-2.4-2.2v-.5l.9-6c.3-1.5,1.5-2.7,3.1-2.7h10.5c1.3,0,2.3,1,2.4,2.2v.5l-.9,6c-.3,1.5-1.6,2.7-3.1,2.7Z"/>
      <path class="cls-1" d="m47.14,107.3h-30.2c-1.5,0-2.8,1.2-3.1,2.7l-.9,6c-.2,1.2.6,2.4,1.8,2.7h30.7c1.5-.1,2.8-1.2,3-2.7l.9-6c.2-1.2-.6-2.4-1.8-2.7h-.4Z"/>
      <path class="cls-1" d="m65.24,118.7h-10.5c-1.3,0-2.3-1-2.4-2.2v-.5l.9-6c.2-1.5,1.5-2.6,3-2.7h10.5c1.3,0,2.3,1,2.4,2.2v.5l-.9,6c-.2,1.6-1.5,2.7-3,2.7Z"/>
      <path class="cls-1" d="m84.94,118.7h-10.5c-1.3,0-2.3-1-2.4-2.2v-.5l.9-6c.3-1.5,1.6-2.7,3.1-2.7h10.5c1.3,0,2.3,1,2.4,2.2v.5l-.9,6c-.2,1.6-1.6,2.7-3.1,2.7Z"/>
      <path class="cls-1" d="m89.94,15h2.5c.6,0,1.2.2,1.6.7.4.5.6,1.1.5,1.7l-.9,6.2c-.2,1.4-1.4,2.4-2.8,2.5h-2.5c-.6,0-1.2-.2-1.6-.7-.4-.5-.6-1.1-.5-1.8l.9-6.2c.1-.7.5-1.3,1-1.7s1.1-.7,1.8-.7Zm2.1,2.3c0-.6-.5-1-1-1h-.1c-.7,0-1.3.5-1.4,1.2l-.6,4.2,3.1-4.4Zm-3.4,6.6c0,.3.1.6.3.8.2.2.5.3.8.3s.7-.1.9-.4c.3-.2.4-.5.5-.9l.6-4.2-3.1,4.4Z"/>
      <path class="cls-4" d="m25.64,58s-15.4,17-22.9,25.4c-3.2,3.5-4.6,11.7,1.5,11.7s17.6-10.1,21.3-14,.1-23.1.1-23.1Z"/>
      <polygon class="cls-2" points="60.74 198.3 66.44 211.8 75.24 209 70.34 195.5 60.74 198.3"/>
      <path class="cls-5" d="m66.44,212.3c-.2,0-.4-.1-.5-.3l-5.8-13.5c-.1-.3,0-.6.3-.7h0l9.7-2.8c.3-.1.5.1.6.3l4.9,13.5v.4l-.3.3-8.7,2.8h-.2Zm-5-13.6l5.3,12.5,7.9-2.5-4.6-12.5-8.6,2.5Z"/>
      <path class="cls-5" d="m66.44,211.8s2.1,7.2,2.9,7.3,18.3-4,17.6-5.8c-.7-1.9-11.6-4.2-11.6-4.2l-8.9,2.7Z"/>
      <path class="cls-5" d="m69.34,219.6h0c-.4,0-1.1,0-3.3-7.6-.1-.3.1-.5.3-.6h0l8.8-2.8h.3c2.6.6,11.3,2.6,12,4.6.1.3,0,.6-.2.9-1.6,2-17,5.5-17.9,5.5Zm-2.2-7.5c.6,2.2,1.4,4.3,2.4,6.4,2-.2,16-3.7,16.9-5.2-.6-1-6.1-2.8-11.1-3.8l-8.2,2.6Z"/>
      <polygon class="cls-2" points="17.14 192.1 13.64 206.4 22.34 209.4 26.54 195.7 17.14 192.1"/>
      <path class="cls-5" d="m22.34,209.9h-.2l-8.7-3c-.3-.1-.4-.3-.3-.6l3.5-14.2c0-.1.1-.3.3-.3.1-.1.3-.1.4,0l9.4,3.6c.2.1.4.4.3.6l-4.2,13.7c0,.1-.1.2-.3.3,0-.1-.1-.1-.2-.1Zm-8.1-3.9l7.8,2.7,3.9-12.8-8.4-3.2-3.3,13.3Z"/>
      <path class="cls-5" d="m13.64,206.4s-2.6,7.1-2.1,7.5,17,7.9,17.6,5.9c.6-1.9-6.7-10.4-6.7-10.4l-8.8-3Z"/>
      <path class="cls-5" d="m28.34,220.6c-3.7,0-16.6-5.9-17.2-6.3-.3-.2-.9-.7,1.9-8.1.1-.3.4-.4.6-.3l8.7,3c.1,0,.2.1.2.2,1.8,2,7.4,8.8,6.8,10.9-.1.3-.3.5-.6.6,0,0-.2,0-.4,0Zm-16.4-7.1c1.7,1,15,6.7,16.7,6.1.2-1.2-3.2-5.9-6.6-9.8l-8.1-2.8c-.9,2.1-1.5,4.3-2,6.5h0Z"/>
      <path class="cls-5" d="m55.04,111.1s16,65.7,20,90.8l-12.2,5.7s-17.5-43.6-23.6-59.1c0,0-5.4,41.7-12.2,53.8l-13.3-2s6.3-31.3,7.4-56.1c1.1-24.8.7-30.6.7-30.6l33.2-2.5Z"/>
      <path class="cls-5" d="m62.84,208h-.2c-.1,0-.2-.2-.3-.3-.2-.4-16.3-40.7-22.9-57.3-1.2,8.4-6,41.4-12,52-.1.2-.3.3-.5.3l-13.3-2c-.1,0-.3-.1-.3-.2-.1-.1-.1-.3-.1-.4.1-.3,6.3-31.5,7.3-56,1.1-24.5.7-30.5.7-30.6,0-.3.2-.5.5-.5h0l33.3-2.4c.2,0,.5.1.5.4.2.7,16,66,20,90.8,0,.2-.1.4-.3.5l-12.2,5.7h-.2Zm-23.6-60.1c.2,0,.4.1.5.3,5.7,14.4,21.5,53.8,23.4,58.6l11.4-5.3c-3.9-23.9-18.4-84.3-19.8-89.9l-32.4,2.3c.1,1.9.2,9.4-.8,30.2-1,22.8-6.4,51.4-7.3,55.7l12.4,1.9c6.6-12.2,11.9-52.9,12-53.3.1-.3.3-.5.6-.5h0Z"/>
      <path class="cls-2" d="m77.94,68.7s3.7-4.2,4.1-4.6.6-3.4,2.4-4.4c.8-.5,1.7-.8,2.6-1,0,0,4.9-4.7,5.6-3.9s-2.8,4.6-2.8,4.6c0,0,1.7,2.8.8,5.2s-2.3,4.1-3.8,4.4-5.6,6.4-5.6,6.4l-3.3-6.7Z"/>
      <path class="cls-5" d="m81.24,75.9h0c-.2,0-.3-.1-.4-.3l-3.3-6.7c-.1-.2-.1-.4.1-.6.4-.4,3.7-4.3,4.1-4.6l.2-.7c.3-1.1.9-3,2.3-3.8.8-.5,1.7-.8,2.6-1,1.4-1.3,4.5-4.1,5.7-4.1.2,0,.4.1.6.3.7.9-.9,3.2-2.6,5,.9,1.6,1.2,3.5.7,5.3-1,2.7-2.5,4.3-4.2,4.7-.9.2-3.7,3.7-5.3,6.1-.2.3-.3.4-.5.4Zm-2.7-7.1l2.8,5.6c1.2-1.8,4-5.5,5.4-5.8s2.5-1.7,3.4-4.1c.8-2.2-.8-4.8-.8-4.8-.1-.2-.1-.4.1-.6,1.1-1.1,2-2.4,2.7-3.8-1.8,1.1-3.4,2.3-4.8,3.8-.1.1-.2.1-.3.1-.8.2-1.6.6-2.4,1-1.1.6-1.5,2.2-1.8,3.2-.1.4-.2.8-.5,1.1-.2.2-2.3,2.6-3.8,4.3h0Z"/>
      <path class="cls-2" d="m31.14,53c-1.9.8-4,1-6.1.6-.9-.1-1.8-.5-2.5-1.2s-.8-1.7-.4-2.5c-1,.1-2-.4-2.7-1.2-.6-.8-1-1.8-1.2-2.8-.3-1.3,0-2.7.9-3.7-1-.5-2.1-1.2-2.4-2.3-.1-.6,0-1.1.1-1.7.3-1.1.7-2.2,1.1-3.2.3-.5.6-1.1,1.2-1.1-.8-2-.4-4.4,1-6,.7-.8,1.7-1.4,2.7-1.6,1.1,0,2.3,0,3.4.2,1.1-1.5,2.9-2.3,4.8-2.2,1.4.2,2.6,1.2,3.1,2.6,1.3-.2,2.5-.1,3.8.3,1.2.4,2.2,1.3,2.7,2.5s0,2.6-1.1,3.3c1.5.2,2.6,1.6,2.6,3.1-.1,1.5-1.2,2.8-2.6,3.2-.2,0-.4.1-.6.3-.2.2-.2.5-.3.7-.2.8-1,1.1-1.3,1.8-.4,1-.8,2.1-1,3.1-.3,1-.7,2-1.1,2.9-.4,1.1-.8,2.2-1.4,3.3-.6.9-1.3.8-2.3,1.2l-.4.4Z"/>
      <path class="cls-5" d="m26.94,54.4c-.6,0-1.3-.1-1.9-.2-1-.1-2-.6-2.8-1.3-.6-.6-.9-1.5-.8-2.4-.9-.1-1.8-.6-2.4-1.3-.7-.9-1.1-1.9-1.3-3-.3-1.2-.1-2.6.6-3.6-1-.4-1.7-1.3-2-2.3-.1-.6-.1-1.3.1-1.9.3-1.1.7-2.2,1.2-3.2.2-.5.6-1,1-1.3-.6-2.1-.1-4.4,1.3-6,.8-.9,1.9-1.5,3-1.7,1.1,0,2.2,0,3.3.2,1.3-1.5,3.1-2.3,5.1-2.2,1.5.2,2.8,1.2,3.4,2.5,1.2-.1,2.4,0,3.6.3,1.4.4,2.5,1.5,3,2.8.4,1.1.2,2.3-.5,3.3,1.3.6,2.1,1.9,2,3.4-.1,1.7-1.3,3.2-3,3.7-.1,0-.2.1-.3.1-.1.1-.1.2-.1.3v.2c-.2.5-.5.9-.8,1.3-.2.2-.4.4-.5.6-.3.7-.5,1.3-.7,2-.1.4-.2.7-.3,1-.3,1-.7,2.1-1.2,3-.2.4-.3.7-.4,1.1-.2.8-.6,1.6-1,2.3-.5.6-1.1,1-1.9,1.2l-.6.2-.7.3h0c-1.3.3-2.9.6-4.4.6Zm-4.7-4.9c.2,0,.3.1.4.2.1.2.1.4,0,.5-.3.7-.2,1.4.3,1.9.6.6,1.4.9,2.2,1,2,.3,4,.1,5.8-.6h0l.7-.2c.2-.1.5-.2.7-.2.5-.1,1-.4,1.3-.8.4-.6.7-1.3.9-2,.1-.4.3-.8.4-1.2.4-.9.8-1.9,1.1-2.9.1-.3.2-.6.3-1,.2-.8.4-1.5.7-2.2.2-.3.4-.6.7-.9.3-.2.5-.5.6-.9v-.1c0-.3.2-.6.4-.8.2-.2.4-.3.7-.4,1.3-.4,2.2-1.5,2.3-2.8,0-1.3-.9-2.4-2.1-2.6-.3,0-.5-.3-.5-.6,0-.2.1-.3.3-.4.9-.6,1.2-1.7.8-2.7-.4-1.1-1.3-1.8-2.4-2.2-1.1-.3-2.4-.4-3.5-.3-.2,0-.5-.1-.5-.3-.4-1.2-1.5-2.1-2.8-2.3-1.7,0-3.2.7-4.3,2h0c-.2.2-.4.3-.6.2-1-.1-2-.2-3-.2-.9.2-1.8.7-2.4,1.4-1.3,1.5-1.7,3.6-1,5.5.1.2.1.3,0,.5-.1.1-.2.2-.4.2-.3,0-.6.5-.8.9-.5,1-.8,2-1.1,3-.2.5-.2,1-.1,1.4.2.9,1.2,1.5,2.1,1.9.2.1.3.2.3.4s-.1.3-.2.4c-1,.8-.9,2.5-.8,3.2.1.9.5,1.8,1.1,2.5.6,1.1,1.4,1.5,2.4,1.5h0Z"/>
      <path class="cls-2" d="m39.74,40.4s4.2,3.1,3.9,4.2-2.3,1.2-2.3,1.2"/>
      <path class="cls-5" d="m41.34,46.2c-.3,0-.5-.2-.5-.5s.2-.5.5-.5h0c.7,0,1.7-.3,1.8-.8s-1.8-2.1-3.8-3.6c-.2-.2-.3-.5-.1-.7s.5-.3.7-.1c1.7,1.2,4.4,3.5,4.1,4.7-.2,1.4-2.4,1.5-2.7,1.5h0Z"/>
      <path class="cls-2" d="m35.64,31.8c.3.1.6.2.8.4.8.8,1.4,1.7,1.8,2.8.9,2,1.8,4,2.4,6.1,1,2.7,1.9,5.5,2.7,8.2.5,1.8-3.9,3.4-4.9,3.2l3.2,6.5s-1.9,1.4-6.1,1c-4.2-.3-4.5-1.2-4.5-1.2l-2.6-8s3-1,3.4-5.2c0-.7,0-1.5.1-2.2.2-.8.9-1.1,1-2,.1-.8-.3-1.6-.9-2.2-.1-.1-.3-.3-.3-.4s.1-.2.2-.3c.8-.9.8-2.3-.1-3.2h0c1.1-.4,1.5-1.8,1.6-3-.1.4,1.8-.6,1.8-.6.1.1.2.1.4.1Z"/>
      <path class="cls-5" d="m36.94,60.6c-.4,0-.9,0-1.4-.1-3.9-.3-4.8-1.1-5-1.5l-2.6-8c-.1-.3,0-.5.3-.6.1,0,2.7-1,3-4.8v-.8c0-.5,0-1,.1-1.5.1-.3.3-.6.5-.9.3-.3.4-.6.4-1,0-.7-.2-1.3-.8-1.8-.4-.2-.6-.7-.4-1.1.1-.1.1-.2.2-.3.7-.7.6-1.8-.1-2.5h0c-.1-.1-.2-.3-.2-.5s.2-.3.3-.4c.9-.3,1.2-1.6,1.3-2.6h0c0-.3.3-.5.6-.4h0q.1,0,.2.1c.4-.1.9-.3,1.3-.5l.2-.1c.2-.1.4-.1.6-.1h0c.4.1.8.3,1.1.6.8.8,1.5,1.8,2,2.9.9,1.8,1.6,3.7,2.2,5.6l.2.6c1,2.7,1.9,5.5,2.7,8.3.2.7,0,1.4-.6,1.8-1.1,1-2.5,1.7-4.1,2l2.8,5.9c.1.2,0,.5-.2.6-1.2.8-2.9,1.2-4.6,1.1Zm-5.5-2.1c.1.1,1,.7,4.1.9,1.8.2,3.7,0,5.4-.7l-3-6.1c-.1-.3,0-.6.2-.7.1-.1.2-.1.3,0,1.5-.1,2.9-.7,4-1.7.3-.3.4-.6.3-.8-.8-2.8-1.7-5.5-2.7-8.2l-.2-.6c-.6-1.8-1.3-3.7-2.2-5.4-.4-1-1-1.8-1.7-2.6-.3-.2-.4-.3-.5-.3s0,0,0,0h-.2c-.5.3-1,.5-1.5.6-.1,1-.5,1.9-1.3,2.6.3.4.4.9.5,1.4,0,.7-.2,1.4-.7,1.9h0c.8.6,1.2,1.6,1.1,2.6-.1.5-.3,1.1-.6,1.5-.2.2-.3.4-.4.7-.1.4-.1.7,0,1.1v1c-.1,2.2-1.4,4.3-3.3,5.4l2.4,7.4Z"/>
      <path class="cls-2" d="m42.54,47.3c-1.4.9-3.3.6-4.4-.7"/>
      <path class="cls-5" d="m40.84,48.3c-1.2,0-2.3-.5-3-1.4-.2-.2-.2-.5,0-.7s.5-.2.7,0c.9,1.1,2.5,1.4,3.7.6.2-.2.5-.1.7.1h0c.2.2.1.5-.1.7h0c-.6.5-1.3.7-2,.7Z"/>
      <path class="cls-2" d="m35.14,44c-.3-.6-.8-1.2-1.4-1.6-.4-.4-.9-.7-1.4-.9-.5-.2-1.1-.2-1.6.1-.4.3-.7.7-.8,1.2s0,1,.1,1.5c.7,2.1,2.4,3.7,4.6,4.2l-.2-.1"/>
      <path class="cls-5" d="m34.64,49.1h-.1c-2.3-.5-4.2-2.3-4.9-4.5-.2-.5-.2-1.1-.2-1.7.1-.6.5-1.2,1-1.6.6-.4,1.4-.4,2-.1.6.2,1.1.5,1.6.9.7.4,1.2,1.1,1.6,1.8.1.3,0,.6-.3.7s-.6,0-.7-.3c-.3-.6-.7-1-1.3-1.4-.4-.3-.8-.6-1.3-.8-.4-.2-.8-.2-1.2,0-.3.2-.5.5-.5.9s0,.8.1,1.2c.6,1.8,2,3.2,3.8,3.8h.3l.2.1c.2.1.3.4.2.6.1.2-.1.3-.3.4Z"/>
      <path class="cls-5" d="m38.54,52.4c-1.5.1-2.9-.3-4.2-1,0,0,1.7,4.1,5.6,4l-1.4-3Z"/>
      <path class="cls-5" d="m39.74,55.9c-4.2,0-5.9-4.1-6-4.3-.1-.2,0-.5.2-.6s.4-.1.6,0c1.2.7,2.5,1.1,3.9,1,.2,0,.4.1.5.3l1.4,2.9c.1.2.1.3,0,.5s-.2.2-.4.2h-.2Zm-4.2-3.3c.8,1.2,2.1,2,3.5,2.3l-.9-1.8c-.9-.1-1.7-.2-2.6-.5Z"/>
      <ellipse class="cls-5" cx="36.95" cy="38.88" rx=".4" ry="1" transform="translate(-10.14 13.19) rotate(-17.84)"/>
      <path class="cls-4" d="m45.24,56.2c-1.3-.9-15.7-4.5-19.7,1.9s-8.5,48.1-6,58.3l37.4-5.2c.1-.1-4.7-50.1-11.7-55Z"/>
      <path class="cls-4" d="m43.54,76.9s7.7,10.7,17.4,10.3c9.8-.4,24.7-15.1,24.7-15.1l-5.7-6.7s-8.9,7.9-14.5,7.1c-7.7-1.1-18.3-14.4-18.3-14.4l-3.6,18.8Z"/>
      <path class="cls-5" d="m60.94,88c-3.9,0-8.3-1.7-12.9-5-3.1-2.3-6-4.9-8.6-7.8-.2-.2-.2-.5,0-.7s.5-.2.7,0l.1.1c.1.2,14,16.4,25.2,11.5,11.6-5.1,17.2-11.8,17.3-11.8.2-.2.5-.3.7-.1.2.2.3.5.1.7,0,0,0,.1-.1.1-.2.3-5.7,6.9-17.6,12.1-1.5.5-3.2.9-4.9.9Z"/>
      <path class="cls-5" d="m61.74,71.4h-.2c-1.9-.9-11.5-8.4-13.8-11.6-1-1.6-2.6-2.8-4.5-3.2-.3,0-.5-.3-.4-.6,0-.3.3-.5.6-.5h.1c2.1.5,4,1.8,5.2,3.6,2.2,3,11.7,10.5,13.4,11.3.3.1.4.4.2.7h0c-.2.2-.4.3-.6.3Z"/>
      <path class="cls-5" d="m19.94,106.3c-.3,0-.5-.2-.5-.5-1.4-14.2,2.1-38.4,2.1-38.7s.3-.5.6-.4.5.3.4.6h0c0,.2-3.5,24.4-2.1,38.4,0,.4-.2.6-.5.6h0Z"/>
      <path class="cls-5" d="m98.44,136c-.1,0-.3-.1-.4-.2l-4.3-4.8c-.2-.2-.1-.5.1-.7.2-.2.5-.1.7,0l4.3,4.8c.2.2.2.5,0,.7h0c-.1.1-.3.2-.4.2Z"/>
      <path class="cls-5" d="m5.74,80.6c-.1,0-.2,0-.3-.1-.2-.2-.2-.5,0-.7h0l9-10c.2-.2.5-.3.7-.1.2.2.3.5.1.7h0l-9,10c-.2.1-.3.2-.5.2Z"/>
    </g>
  </g>
</svg>